# xmcd
#
# Track frame offsets: 
#        150
#        7269
#        18650
#        32237
#        42966
#        52453
#        62271
#        74993
#        89915
#        103932
#        115975
#        134239
#        145951
#        155217
#        168473
#        179348
#        190758
#        205729
#        220737
#        230891
#
# Disc length: 3226 seconds
#
# Revision: 4
# Processed by: cddbd v1.5.2PL0 Copyright (c) Steve Scherf et al.
# Submitted via: ExactAudioCopyFreeDBPlugin 1.0
#
DISCID=4c0c9814
DTITLE=Various Artist - The Ultimate Country Gold Collection Disc 6
DYEAR=2000
DGENRE=Country
TTITLE0=Buck Owens - You're For Me
TTITLE1=Lynn Anderson - Listen to a Country Song
TTITLE2=Patsy Cline - Life's Railway to Heaven
TTITLE3=Skeeter Davis - Gonna Get Along Without You Now
TTITLE4=Roy Drusky - Second Hand Rose
TTITLE5=Dave Dudley - Truck Drivin' Son of a Gun
TTITLE6=Donna Fargo - Don't Be Angry
TTITLE7=Donna Fargo - That Was Yesterday
TTITLE8=Barbara Fairchild - Teddy Bear Song
TTITLE9=Freddy Fender - Before the Next Teardrop Falls
TTITLE10=Freddy Fender - Secret Love
TTITLE11=Don Gibson - Oh Lonesome Me
TTITLE12=Johnny Paycheck - Mr Love Maker
TTITLE13=Ferlin Husky - A Fallen Star
TTITLE14=Carl Perkins - Dixie Fried
TTITLE15=Hank Locklin - Send Me the Pillow That You Dream On
TTITLE16=Jeannie C Riley - Harper Valley PTA
TTITLE17=Kenny Rogers - Conditions
TTITLE18=Jimmie Rodgers - Kisses Sweeter Than Wine
TTITLE19=Kitty Wells - It Wasn't God Who Made Honky Tonk Angels
EXTD=MasterSong Cat: 60000/6 Bar: 9316797600004
EXTT0=
EXTT1=
EXTT2=
EXTT3=
EXTT4=
EXTT5=
EXTT6=
EXTT7=
EXTT8=
EXTT9=
EXTT10=
EXTT11=
EXTT12=
EXTT13=
EXTT14=
EXTT15=
EXTT16=
EXTT17=
EXTT18=
EXTT19=
PLAYORDER=
